<svg width="558" height="599" fill="none" xmlns="http://www.w3.org/2000/svg"><path d="M9 271.5C9 421.445 131.002 543 281.5 543S554 421.445 554 271.5 431.998 0 281.5 0 9 121.555 9 271.5zm421.284 0c0 81.87-66.613 148.238-148.784 148.238-82.171 0-148.784-66.368-148.784-148.238S199.329 123.262 281.5 123.262c82.171 0 148.784 66.368 148.784 148.238z" fill="url(#paint0_linear_201_76)"/><path d="M499.323 387.475c-5.084-16.417-21.306-26.48-36.234-22.475-14.928 4.005-22.908 20.561-17.824 36.979s21.307 26.48 36.235 22.475c14.928-4.005 22.907-20.561 17.823-36.979z" fill="#ED553B"/><path fill-rule="evenodd" clip-rule="evenodd" d="M447.723 401.32c4.808 15.527 19.866 24.389 33.069 20.847 13.202-3.542 20.883-18.505 16.074-34.033-4.808-15.527-19.866-24.389-33.069-20.847-13.202 3.542-20.883 18.505-16.074 34.033zm34.485 25.421c-16.653 4.468-34.04-6.795-39.4-24.103-5.36-17.308 2.92-35.457 19.573-39.925 16.653-4.468 34.04 6.795 39.4 24.103 5.359 17.308-2.92 35.457-19.573 39.925z" fill="#1D1C1D"/><path d="M324.23 185.186c18.422 11.251 15.255 41.741 11.369 55.58 20.303-25.311 37.963-83.181-53.828-112.175-9.048-2.858-17.308-4.727-24.844-5.736-9.922-1.329-18.587-1.168-26.134.19-44.873 8.076-50.244 58.451-45.564 89.322 4.068-18.662 20.437-13.951 28.113-9.263 20.834 9.763 82.606-7.878 110.888-17.918z" fill="#1D1C1D"/><path d="M216.248 70.07c-37.745 10.358-6.03 39.633 14.545 52.975 7.547-1.358 16.212-1.519 26.134-.19 2.167-21.912-2.935-63.145-40.679-52.786zm-82.014 409.838c27.284-.676 138.311-11.769 181.86 15.886 14.89 9.456 15.135 16.396 9.009 21.435h64.926c4.091-17.298-55.146-99.245-85.276-138.057a337.592 337.592 0 00-19.158-17.833c-67.181 44.368-128.9-9.038-151.361-41.287-29.357 3.418-64.745 12.828-86.146 41.287l63.3 58.102 22.846 60.467z" fill="#1D1C1D"/><path fill-rule="evenodd" clip-rule="evenodd" d="M237.664 72.983c-5.036-2.41-11.728-3.091-20.693-.63-9.113 2.5-13.334 5.958-14.914 9.418-1.58 3.46-.874 7.704 1.859 12.563 5.332 9.481 17.427 19.555 27.47 26.189 6.892-1.125 14.601-1.298 23.201-.354.721-10.553-.307-24.446-5.362-34.826-2.71-5.567-6.484-9.932-11.561-12.36zm22.001 47.858c.797-11.002-.184-25.968-5.781-37.463-3.012-6.186-7.456-11.556-13.883-14.63-6.469-3.094-14.569-3.681-24.476-.962-9.76 2.678-15.728 6.764-18.175 12.123-2.446 5.36-1.015 11.21 2.035 16.633 5.228 9.296 15.946 18.678 25.441 25.4-20.187 5.508-31.782 19.894-37.819 36.451-6.48 17.771-6.683 38.285-4.37 53.907-2.038 10.011 1.721 17.754 7.213 23.255 4.728 4.735 10.748 7.837 15.541 9.488-2.268 11.236-5.971 27.264-10.194 41.221-2.245 7.419-4.617 14.183-6.973 19.313-1.18 2.569-2.325 4.66-3.409 6.197-1.134 1.608-2 2.317-2.499 2.537-.26.115-.808.275-1.776.429-.933.148-2.109.27-3.535.373-2.768.199-6.283.316-10.46.455l-.414.013c-8.673.288-19.913.677-32.214 2.109-29.567 3.443-65.886 12.977-87.923 42.284-5.348 7.112-9.832 15.36-13.168 24.923-14.026 40.208-15.34 76.28-7.364 103.802 7.97 27.504 25.342 46.743 48.812 52.454 9.41 2.289 22.627 1.972 37.899.548 11.728-1.094 24.915-2.869 38.848-4.745 4.293-.578 8.658-1.166 13.073-1.746 37.649-4.948 79.071-9.363 113.348-3.289a2.7 2.7 0 00.684.034l-.206-2.372.207 2.372h.008l.022-.002.082-.006.31-.025a194.388 194.388 0 005.397-.543 212.92 212.92 0 0013.634-2c5.228-.951 10.886-2.218 16.017-3.881 4.706-1.525 9.167-3.445 12.438-5.889h63.994c1.201 0 2.239-.778 2.498-1.869.661-2.798.002-6.477-1.303-10.505-1.339-4.131-3.493-9.022-6.244-14.435-5.507-10.834-13.524-23.995-22.574-37.774-18.109-27.568-40.491-57.811-55.58-77.248a2.435 2.435 0 00-.197-.223 339.654 339.654 0 00-19.298-17.964c-12.93-11.121-24.414-19.232-32.414-24.014l4.649-21.327c18.537 2.271 35.101-8.84 48.186-23.305 13.676-15.119 24.209-34.59 30.112-49.026 10.332-13.006 20.042-34.334 15.365-56.322-4.755-22.358-24.193-44.59-70.636-59.26-8.241-2.603-15.87-4.407-22.928-5.496zm80.824 108.152c6.605-11.85 10.995-27.089 7.723-42.471-4.287-20.154-21.915-41.353-67.263-55.677-8.922-2.818-17.028-4.649-24.386-5.635-9.686-1.297-18.06-1.128-25.284.172-21.269 3.828-33.258 17.617-39.429 34.541-4.985 13.674-6.087 29.231-5.128 42.705a15.986 15.986 0 011.713-1.909c2.691-2.55 5.931-3.77 9.218-4.106 6.335-.649 12.88 1.958 16.962 4.421 4.595 2.108 11.753 2.853 20.734 2.424 8.967-.429 19.373-2.003 30.092-4.211 21.43-4.413 43.821-11.295 57.878-16.286a2.722 2.722 0 012.314.234c10.196 6.227 14.145 17.587 15.195 28.6.56 5.881.314 11.838-.339 17.198zm-130.155-24.804c-3.492-1.814-8.061-3.26-12.122-2.844-2.273.233-4.368 1.042-6.129 2.71-1.787 1.693-3.399 4.433-4.347 8.785-1.843 8.454 1.217 14.823 5.861 19.474 3.597 3.603 8.136 6.151 12.021 7.691-.316-13.843 1.937-26.666 4.716-35.816zm-2.645 54.388c-2.102 9.204-4.715 19.546-7.57 28.978-2.268 7.496-4.709 14.487-7.192 19.894-1.24 2.699-2.521 5.072-3.836 6.937-1.265 1.794-2.771 3.425-4.582 4.226-.895.396-1.99.643-3.107.821-1.153.183-2.503.318-4.002.426-2.876.208-6.486.327-10.595.463l-.492.017c-7.668.254-17.185.584-27.617 1.627 11.5 15.405 31.183 34.484 55.551 45.313 25.237 11.215 55.484 13.605 87.252-6.202-12.594-10.62-23.542-18.161-30.786-22.341-.91-.525-1.372-1.521-1.159-2.497l4.997-22.926c-4.245-1.07-8.522-2.856-12.813-5.434-20.406-12.26-30.186-30.746-34.049-49.302zm77.676 105.813c-33.847 21.568-66.434 19.134-93.322 7.185-26.49-11.772-47.462-32.755-59.068-48.972-28.22 3.472-61.04 12.604-81.533 38.471l61.742 56.672c.277.254.488.563.617.905l22.223 58.82c3.628-.13 8.436-.395 14.156-.709 17.196-.946 42.625-2.345 68.93-1.915 18.379.301 37.341 1.491 54.486 4.36 17.102 2.863 32.618 7.431 43.939 14.621 7.56 4.8 11.97 9.291 13.392 13.648.735 2.256.651 4.428-.158 6.441a9.942 9.942 0 01-.432.931h57.327c-.07-1.536-.483-3.605-1.337-6.239-1.235-3.813-3.273-8.465-5.971-13.773-5.391-10.609-13.3-23.604-22.314-37.326-17.983-27.377-40.231-57.448-55.271-76.827a335.879 335.879 0 00-17.406-16.293zm-236.879.657c-4.309 6.172-7.974 13.234-10.795 21.321-13.796 39.545-14.952 74.656-7.291 101.091 7.665 26.453 24.035 43.946 45.168 49.088 8.431 2.052 20.821 1.841 36.096.417 11.605-1.082 24.634-2.836 38.539-4.708 4.313-.581 8.71-1.173 13.176-1.76 37.429-4.919 79.512-9.465 114.672-3.313l.042-.003a190.502 190.502 0 005.23-.526 206.983 206.983 0 0013.277-1.948c5.094-.926 10.495-2.141 15.315-3.704 4.87-1.578 8.92-3.44 11.495-5.557 1.318-1.085 2.151-2.156 2.569-3.196.402-1 .475-2.099.054-3.39-.893-2.736-4.05-6.444-11.38-11.099-10.453-6.638-25.147-11.053-41.963-13.867-16.774-2.808-35.438-3.988-53.67-4.286-26.095-.427-50.986.944-68.167 1.89-6.902.38-12.56.692-16.551.791-1.11.027-2.112-.615-2.48-1.59l-22.65-59.949-60.686-55.702zm166.517-158.715c-2.757 9.428-4.919 22.787-4.139 36.989 1.222 22.241 9.611 46.118 33.648 60.559 4.651 2.794 9.172 4.496 13.542 5.313 16.657 3.114 32.394-6.51 45.785-21.314 13.254-14.652 23.565-33.709 29.32-47.837 1.873-6.728 3.562-17.463 2.574-27.827-.957-10.047-4.364-19.186-11.858-24.359-14.279 5.008-36.229 11.694-57.329 16.039-10.865 2.238-21.576 3.87-30.934 4.317-7.863.376-15.052-.068-20.609-1.88z" fill="#1D1C1D"/><path d="M243.125 305.88c-24.993-15.016-33.57-39.783-34.815-62.437-4.449 22.638-15.658 68.935-24.898 73.019-4.623 2.043-24.825.755-49.178 3.59 22.461 32.249 84.18 85.655 151.361 41.287-13.675-11.761-25.674-20.091-33.535-24.626l5.49-25.186c-4.716-.882-9.533-2.708-14.425-5.647z" fill="#fff"/><path d="M335.599 240.766c3.886-13.839 7.053-44.329-11.369-55.58-28.282 10.04-90.054 27.681-110.888 17.918-3.192 9.719-5.901 24.513-5.032 40.339 1.245 22.654 9.822 47.421 34.815 62.437 4.892 2.939 9.709 4.765 14.425 5.647 36.212 6.77 66.426-42.155 78.049-70.761z" fill="#fff"/><path d="M208.31 243.443c-.869-15.826 1.84-30.62 5.032-40.339-7.676-4.688-24.045-9.399-28.113 9.263-4.068 18.662 13.692 28.493 23.081 31.076zM35.258 385.633c-27.822 79.753-4.94 142.365 39.663 153.217 35.682 8.682 133.492-21.584 202.999-9.267 0 0 35.392-2.656 47.183-12.354 6.126-5.039 5.881-11.979-9.009-21.435-43.549-27.655-154.576-16.562-181.86-15.886l-22.846-60.467-63.3-58.102c-5.197 6.912-9.57 14.948-12.83 24.294z" fill="#fff"/><path fill-rule="evenodd" clip-rule="evenodd" d="M237.664 72.983c-5.036-2.41-11.728-3.091-20.693-.63-9.113 2.5-13.334 5.958-14.914 9.418-1.58 3.46-.874 7.704 1.859 12.563 5.332 9.481 17.427 19.555 27.47 26.189 6.892-1.125 14.601-1.298 23.201-.354.721-10.553-.307-24.446-5.362-34.826-2.71-5.567-6.484-9.932-11.561-12.36zm22.001 47.858c.797-11.002-.184-25.968-5.781-37.463-3.012-6.186-7.456-11.556-13.883-14.63-6.469-3.094-14.569-3.681-24.476-.962-9.76 2.678-15.728 6.764-18.175 12.123-2.446 5.36-1.015 11.21 2.035 16.633 5.228 9.296 15.946 18.678 25.441 25.4-20.187 5.508-31.782 19.894-37.819 36.451-6.48 17.771-6.683 38.285-4.37 53.907-2.038 10.011 1.721 17.754 7.213 23.255 4.728 4.735 10.748 7.837 15.541 9.488-2.268 11.236-5.971 27.264-10.194 41.221-2.245 7.419-4.617 14.183-6.973 19.313-1.18 2.569-2.325 4.66-3.409 6.197-1.134 1.608-2 2.317-2.499 2.537-.26.115-.808.275-1.776.429-.933.148-2.109.27-3.535.373-2.768.199-6.283.316-10.46.455l-.414.013c-8.673.288-19.913.677-32.214 2.109-29.567 3.443-65.886 12.977-87.923 42.284-5.348 7.112-9.832 15.36-13.168 24.923-14.026 40.208-15.34 76.28-7.364 103.802 7.97 27.504 25.342 46.743 48.812 52.454 9.41 2.289 22.627 1.972 37.899.548 11.728-1.094 24.915-2.869 38.848-4.745 4.293-.578 8.658-1.166 13.073-1.746 37.649-4.948 79.071-9.363 113.348-3.289a2.7 2.7 0 00.684.034l-.206-2.372.207 2.372h.008l.022-.002.082-.006.31-.025a194.388 194.388 0 005.397-.543 212.92 212.92 0 0013.634-2c5.228-.951 10.886-2.218 16.017-3.881 4.706-1.525 9.167-3.445 12.438-5.889h63.994c1.201 0 2.239-.778 2.498-1.869.661-2.798.002-6.477-1.303-10.505-1.339-4.131-3.493-9.022-6.244-14.435-5.507-10.834-13.524-23.995-22.574-37.774-18.109-27.568-40.491-57.811-55.58-77.248a2.435 2.435 0 00-.197-.223 339.654 339.654 0 00-19.298-17.964c-12.93-11.121-24.414-19.232-32.414-24.014l4.649-21.327c18.537 2.271 35.101-8.84 48.186-23.305 13.676-15.119 24.209-34.59 30.112-49.026 10.332-13.006 20.042-34.334 15.365-56.322-4.755-22.358-24.193-44.59-70.636-59.26-8.241-2.603-15.87-4.407-22.928-5.496zm80.824 108.152c6.605-11.85 10.995-27.089 7.723-42.471-4.287-20.154-21.915-41.353-67.263-55.677-8.922-2.818-17.028-4.649-24.386-5.635-9.686-1.297-18.06-1.128-25.284.172-21.269 3.828-33.258 17.617-39.429 34.541-4.985 13.674-6.087 29.231-5.128 42.705a15.986 15.986 0 011.713-1.909c2.691-2.55 5.931-3.77 9.218-4.106 6.335-.649 12.88 1.958 16.962 4.421 4.595 2.108 11.753 2.853 20.734 2.424 8.967-.429 19.373-2.003 30.092-4.211 21.43-4.413 43.821-11.295 57.878-16.286a2.722 2.722 0 012.314.234c10.196 6.227 14.145 17.587 15.195 28.6.56 5.881.314 11.838-.339 17.198zm-130.155-24.804c-3.492-1.814-8.061-3.26-12.122-2.844-2.273.233-4.368 1.042-6.129 2.71-1.787 1.693-3.399 4.433-4.347 8.785-1.843 8.454 1.217 14.823 5.861 19.474 3.597 3.603 8.136 6.151 12.021 7.691-.316-13.843 1.937-26.666 4.716-35.816zm-2.645 54.388c-2.102 9.204-4.715 19.546-7.57 28.978-2.268 7.496-4.709 14.487-7.192 19.894-1.24 2.699-2.521 5.072-3.836 6.937-1.265 1.794-2.771 3.425-4.582 4.226-.895.396-1.99.643-3.107.821-1.153.183-2.503.318-4.002.426-2.876.208-6.486.327-10.595.463l-.492.017c-7.668.254-17.185.584-27.617 1.627 11.5 15.405 31.183 34.484 55.551 45.313 25.237 11.215 55.484 13.605 87.252-6.202-12.594-10.62-23.542-18.161-30.786-22.341-.91-.525-1.372-1.521-1.159-2.497l4.997-22.926c-4.245-1.07-8.522-2.856-12.813-5.434-20.406-12.26-30.186-30.746-34.049-49.302zm77.676 105.813c-33.847 21.568-66.434 19.134-93.322 7.185-26.49-11.772-47.462-32.755-59.068-48.972-28.22 3.472-61.04 12.604-81.533 38.471l61.742 56.672c.277.254.488.563.617.905l22.223 58.82c3.628-.13 8.436-.395 14.156-.709 17.196-.946 42.625-2.345 68.93-1.915 18.379.301 37.341 1.491 54.486 4.36 17.102 2.863 32.618 7.431 43.939 14.621 7.56 4.8 11.97 9.291 13.392 13.648.735 2.256.651 4.428-.158 6.441a9.942 9.942 0 01-.432.931h57.327c-.07-1.536-.483-3.605-1.337-6.239-1.235-3.813-3.273-8.465-5.971-13.773-5.391-10.609-13.3-23.604-22.314-37.326-17.983-27.377-40.231-57.448-55.271-76.827a335.879 335.879 0 00-17.406-16.293zm-236.879.657c-4.309 6.172-7.974 13.234-10.795 21.321-13.796 39.545-14.952 74.656-7.291 101.091 7.665 26.453 24.035 43.946 45.168 49.088 8.431 2.052 20.821 1.841 36.096.417 11.605-1.082 24.634-2.836 38.539-4.708 4.313-.581 8.71-1.173 13.176-1.76 37.429-4.919 79.512-9.465 114.672-3.313l.042-.003a190.502 190.502 0 005.23-.526 206.983 206.983 0 0013.277-1.948c5.094-.926 10.495-2.141 15.315-3.704 4.87-1.578 8.92-3.44 11.495-5.557 1.318-1.085 2.151-2.156 2.569-3.196.402-1 .475-2.099.054-3.39-.893-2.736-4.05-6.444-11.38-11.099-10.453-6.638-25.147-11.053-41.963-13.867-16.774-2.808-35.438-3.988-53.67-4.286-26.095-.427-50.986.944-68.167 1.89-6.902.38-12.56.692-16.551.791-1.11.027-2.112-.615-2.48-1.59l-22.65-59.949-60.686-55.702zm166.517-158.715c-2.757 9.428-4.919 22.787-4.139 36.989 1.222 22.241 9.611 46.118 33.648 60.559 4.651 2.794 9.172 4.496 13.542 5.313 16.657 3.114 32.394-6.51 45.785-21.314 13.254-14.652 23.565-33.709 29.32-47.837 1.873-6.728 3.562-17.463 2.574-27.827-.957-10.047-4.364-19.186-11.858-24.359-14.279 5.008-36.229 11.694-57.329 16.039-10.865 2.238-21.576 3.87-30.934 4.317-7.863.376-15.052-.068-20.609-1.88z" fill="#1D1C1D"/><path d="M263.078 322.046c26.595-38.084 53.702-20.629 63.931-7.14l86.035 140.435s15.022 42.874-19.547 61.888c-45.008 24.755-83.536-119.88-97.175-171.49-26.151 6.735-55.287 7.873-33.244-23.693z" fill="#fff"/><path fill-rule="evenodd" clip-rule="evenodd" d="M324.849 316.186l85.837 140.111.067.207c.095.297.232.744.397 1.324a66.462 66.462 0 011.188 4.947c.844 4.196 1.614 9.964 1.341 16.284-.546 12.644-5.224 27.178-21.483 36.121-5.01 2.755-9.764 3.107-14.422 1.648-4.783-1.497-9.673-4.973-14.6-10.254-9.86-10.569-19.193-27.629-27.653-47.337-16.413-38.233-29.157-85.5-36.126-111.837a198.204 198.204 0 0013.168-4.083c1.322-.462 1.992-1.834 1.497-3.065-.496-1.23-1.97-1.854-3.293-1.392a191.758 191.758 0 01-15.127 4.585c-6.453 1.662-13.026 2.961-18.897 3.503-5.944.55-10.861.292-14.19-.912-1.623-.586-2.756-1.358-3.491-2.272-.721-.896-1.193-2.095-1.209-3.773-.034-3.501 1.926-8.854 7.369-16.648 12.984-18.592 25.581-22.985 35.65-21.844 10.331 1.17 19.068 8.255 23.977 14.687zm-30.386 32.481c-5.824 1.407-11.755 2.514-17.215 3.019-6.185.571-12.078.404-16.547-1.212-2.276-.823-4.288-2.06-5.734-3.858-1.46-1.816-2.204-4.035-2.229-6.583-.047-4.953 2.617-11.295 8.196-19.284 13.611-19.492 27.864-25.414 40.556-23.976 12.378 1.402 22.275 9.727 27.608 16.76.047.062.091.127.132.193l86.036 140.436c.085.14.156.288.209.441l-2.431.738c2.431-.738 2.432-.737 2.432-.736l.001.004.004.009.01.031.037.107c.03.092.074.224.128.394.108.34.26.833.439 1.463a70.325 70.325 0 011.27 5.286c.892 4.437 1.717 10.576 1.424 17.351-.585 13.547-5.681 29.957-23.992 40.028-6.242 3.434-12.537 3.977-18.654 2.062-5.992-1.875-11.603-6.041-16.83-11.645-10.449-11.2-20.039-28.883-28.542-48.691-16.533-38.515-29.338-85.998-36.308-112.337zM279.956 235.21c.481 1.236-.206 2.601-1.534 3.049l-6.64 2.237c-1.328.448-2.794-.191-3.275-1.428-.481-1.236.206-2.6 1.534-3.048l6.64-2.238c1.328-.447 2.794.192 3.275 1.428zm43.289 14.981c.799 1.083.504 2.565-.66 3.309l-7.149 4.571c-1.164.744-2.756.469-3.556-.615-.799-1.083-.504-2.565.66-3.309l7.149-4.571c1.164-.744 2.756-.469 3.556.615zm-25.878 10.364c.11 1.31-.942 2.456-2.35 2.558l-18.56 1.353c-1.408.102-2.639-.877-2.749-2.187-.11-1.311.942-2.457 2.35-2.559l18.56-1.353c1.408-.102 2.639.877 2.749 2.188zm-39.882 6.663c1.408.1 2.463 1.243 2.356 2.554-.583 7.141 1.648 10.229 3.834 11.591 2.385 1.486 5.605 1.496 7.951.908 1.363-.343 2.767.409 3.135 1.678.367 1.269-.44 2.575-1.803 2.918-3.176.797-8.081.973-12.128-1.548-4.247-2.647-6.756-7.74-6.089-15.908.107-1.31 1.335-2.292 2.744-2.193z" fill="#1D1C1D"/><path fill-rule="evenodd" clip-rule="evenodd" d="M287.002 224.302c.281-1.289 1.631-2.121 3.015-1.86l20.049 3.787c1.384.261 2.278 1.517 1.998 2.806-.281 1.288-1.631 2.121-3.015 1.859L289 227.108c-1.384-.262-2.279-1.518-1.998-2.806z" fill="#ED553B"/><path fill-rule="evenodd" clip-rule="evenodd" d="M320.707 221.964c-5.271 4.259-9.462 10.829-11.185 18.733-1.723 7.905-.614 15.476 2.456 21.31 3.069 5.83 8.015 9.813 13.997 10.943 5.982 1.13 12.205-.744 17.473-5 5.27-4.259 9.461-10.829 11.184-18.733 1.723-7.904.614-15.476-2.456-21.309-3.069-5.831-8.015-9.814-13.997-10.944-5.982-1.13-12.205.744-17.472 5zm-3.353-3.595c6.195-5.006 13.983-7.555 21.842-6.07 7.859 1.484 13.964 6.656 17.573 13.514 3.608 6.855 4.804 15.506 2.876 24.351-1.928 8.844-6.652 16.377-12.845 21.381-6.195 5.006-13.983 7.555-21.842 6.071-7.859-1.485-13.964-6.657-17.573-13.515-3.608-6.855-4.804-15.506-2.876-24.35 1.928-8.845 6.652-16.378 12.845-21.382zm-49.821-24.46c-13.465-2.543-27.71 7.419-31.163 23.26-3.453 15.84 5.494 30.183 18.959 32.726 13.465 2.543 27.711-7.419 31.164-23.26 3.453-15.841-5.495-30.183-18.96-32.726zm-36.176 22.313c3.849-17.656 20.208-30.186 37.193-26.979 16.986 3.208 26.804 20.682 22.955 38.339-3.849 17.656-20.207 30.186-37.193 26.978-16.985-3.208-26.804-20.682-22.955-38.338z" fill="#ED553B"/><path d="M285.183 445.82l-12.786 33.324c18.52 3.046 47.527 13.225 53.702 23.803 5.114-14.282 15.343-39.513 15.343-45.225 0-5.713-2.557-9.155-10.229-11.902-11.081-3.967-27.107-9.521-33.244-9.521-6.137 0-10.229 2.381-12.786 9.521z" fill="#ED553B"/><path fill-rule="evenodd" clip-rule="evenodd" d="M291.778 440.279c-1.555 1.097-2.986 2.989-4.169 6.294l-.017.048h-.001l-11.783 30.71c8.945 1.721 19.653 4.83 29.102 8.712 5.263 2.162 10.199 4.591 14.249 7.191 2.289 1.47 4.366 3.039 6.067 4.699.973-2.631 2.051-5.499 3.159-8.446 1.645-4.377 3.356-8.927 4.88-13.128 1.595-4.393 3.018-8.486 4.039-11.822 1.059-3.455 1.581-5.778 1.581-6.815 0-2.512-.555-4.229-1.701-5.604-1.192-1.431-3.259-2.777-6.889-4.076-5.537-1.982-12.263-4.344-18.357-6.209-3.047-.932-5.904-1.73-8.356-2.293-2.5-.574-4.403-.861-5.613-.861-2.711 0-4.663.522-6.191 1.6zm-3.089-3.794c2.691-1.898 5.854-2.566 9.28-2.566 1.859 0 4.26.407 6.838.999 2.625.603 5.618 1.441 8.729 2.393 6.223 1.904 13.051 4.303 18.595 6.288 4.042 1.447 7.089 3.195 9.094 5.601 2.05 2.46 2.774 5.321 2.774 8.522 0 1.818-.756 4.791-1.776 8.12-1.056 3.448-2.51 7.627-4.112 12.041-1.588 4.375-3.293 8.908-4.923 13.241-1.711 4.548-3.339 8.877-4.663 12.576-.323.899-1.187 1.535-2.202 1.618-1.014.083-1.985-.402-2.471-1.235-1.261-2.159-3.846-4.522-7.597-6.93-3.704-2.379-8.335-4.669-13.41-6.755-10.158-4.173-21.843-7.422-30.893-8.91-.742-.122-1.388-.542-1.766-1.148a2.23 2.23 0 01-.197-1.996l12.777-33.301c1.373-3.824 3.265-6.684 5.923-8.558z" fill="#1D1C1D"/><path d="M387.472 519.608h163.662c2.557-8.728 6.138-28.563 0-38.084-1.628-2.526-10.251-3.991-23.015-4.706-35.347-1.98-102.445 1.791-140.647 4.706 3.409 7.14 8.183 24.754 0 38.084z" fill="#1D1C1D"/><path fill-rule="evenodd" clip-rule="evenodd" d="M538.3 436.3c.915-.016 1.77.424 2.241 1.155 1.37 2.125 3.156 5.563 4.064 9.055.856 3.286 1.192 7.645-1.891 10.515-1.372 1.276-3.204 2.198-5.078 2.883-1.9.694-4.011 1.204-6.09 1.579-3.498.63-7.071.905-9.718.976-.713 1.15-.95 2.179-.933 3.086.021 1.179.477 2.375 1.312 3.57 1.604 2.295 4.359 4.223 6.612 5.354 6.192.361 11.489.905 15.508 1.689 2.063.402 3.882.885 5.344 1.481 1.385.564 2.833 1.379 3.656 2.656 3.494 5.42 4.072 13.396 3.621 20.701-.46 7.433-2.03 14.739-3.347 19.234-.303 1.036-1.314 1.754-2.467 1.754H387.472c-.912 0-1.754-.451-2.212-1.185a2.239 2.239 0 01-.009-2.376c3.748-6.105 4.592-13.31 4.019-19.993-.499-5.818-2.057-11.066-3.505-14.53h-16.194a2.73 2.73 0 01-.809-.122c-2.368-.735-3.831-2.314-4.55-4.2-.676-1.775-.686-3.772-.439-5.613.497-3.7 2.161-7.659 3.511-10.171.419-.78 1.264-1.285 2.201-1.314l32.282-1.019c1.407-1.296 3.068-3.233 4.084-5.347 1.172-2.437 1.319-4.687-.049-6.597-.462-.644-.731-1.521-.455-2.47.245-.84.823-1.401 1.256-1.731.84-.641 2.011-1.075 3.131-1.405 2.358-.696 5.87-1.306 10.143-1.858 8.607-1.112 20.883-2.053 34.629-2.837 27.519-1.57 61.186-2.523 83.794-2.92zm-129.715 24.95l111.776-3.527.086-.001c2.426 0 6.352-.229 10.127-.909 1.885-.34 3.674-.781 5.194-1.337 1.546-.565 2.655-1.19 3.329-1.818 1.009-.938 1.345-2.927.538-6.028-.609-2.338-1.729-4.737-2.763-6.543-22.539.411-55.245 1.355-82.053 2.884-13.722.783-25.836 1.716-34.239 2.801-4.232.547-7.382 1.115-9.302 1.681l-.254.077c1.537 3.321.828 6.761-.505 9.533a20.305 20.305 0 01-1.934 3.187zm-17.474 22.388a55.337 55.337 0 013.257 14.417c.521 6.076-.002 12.874-2.803 19.173h157.588c1.12-4.265 2.309-10.356 2.689-16.501.443-7.175-.257-13.878-2.901-17.979.001.001.002.003 0 0-.027-.029-.309-.332-1.32-.744-1.011-.412-2.451-.814-4.343-1.183-3.774-.736-8.976-1.272-15.312-1.627-34.111-1.911-98.173 1.571-136.855 4.444zm-3.744-4.495c35.392-2.698 95.656-6.14 132.576-5.049a17.467 17.467 0 01-2.023-2.379c-1.211-1.732-2.097-3.789-2.139-6.084a9.396 9.396 0 01.441-3.014l-145.003 4.575c-1.025 2.154-2.042 4.915-2.371 7.367-.2 1.49-.114 2.647.184 3.431.214.562.522.923 1.025 1.153h17.31z" fill="#1D1C1D"/><path d="M387.472 481.524c38.202-2.915 105.3-6.686 140.647-4.706-5.114-2.398-13.809-9.099-7.671-16.716l-117.633 3.712-33.244 1.049c-2.557 4.76-6.137 14.756 0 16.661h17.901z" fill="#fff"/><path d="M402.815 463.814l117.633-3.712c5.114 0 16.366-.952 20.457-4.76 4.092-3.809 0-12.695-2.557-16.662-45.177.793-134.51 3.808-130.418 9.521 4.091 5.712-1.705 12.789-5.115 15.613z" fill="#fff"/><path fill-rule="evenodd" clip-rule="evenodd" d="M538.3 436.3c.915-.016 1.77.424 2.241 1.155 1.37 2.125 3.156 5.563 4.064 9.055.856 3.286 1.192 7.645-1.891 10.515-1.372 1.276-3.204 2.198-5.078 2.883-1.9.694-4.011 1.204-6.09 1.579-3.498.63-7.071.905-9.718.976-.713 1.15-.95 2.179-.933 3.086.021 1.179.477 2.375 1.312 3.57 1.604 2.295 4.359 4.223 6.612 5.354 6.192.361 11.489.905 15.508 1.689 2.063.402 3.882.885 5.344 1.481 1.385.564 2.833 1.379 3.656 2.656 3.494 5.42 4.072 13.396 3.621 20.701-.46 7.433-2.03 14.739-3.347 19.234-.303 1.036-1.314 1.754-2.467 1.754H387.472c-.912 0-1.754-.451-2.212-1.185a2.239 2.239 0 01-.009-2.376c3.748-6.105 4.592-13.31 4.019-19.993-.499-5.818-2.057-11.066-3.505-14.53h-16.194a2.73 2.73 0 01-.809-.122c-2.368-.735-3.831-2.314-4.55-4.2-.676-1.775-.686-3.772-.439-5.613.497-3.7 2.161-7.659 3.511-10.171.419-.78 1.264-1.285 2.201-1.314l32.282-1.019c1.407-1.296 3.068-3.233 4.084-5.347 1.172-2.437 1.319-4.687-.049-6.597-.462-.644-.731-1.521-.455-2.47.245-.84.823-1.401 1.256-1.731.84-.641 2.011-1.075 3.131-1.405 2.358-.696 5.87-1.306 10.143-1.858 8.607-1.112 20.883-2.053 34.629-2.837 27.519-1.57 61.186-2.523 83.794-2.92zm-129.715 24.95l111.776-3.527.086-.001c2.426 0 6.352-.229 10.127-.909 1.885-.34 3.674-.781 5.194-1.337 1.546-.565 2.655-1.19 3.329-1.818 1.009-.938 1.345-2.927.538-6.028-.609-2.338-1.729-4.737-2.763-6.543-22.539.411-55.245 1.355-82.053 2.884-13.722.783-25.836 1.716-34.239 2.801-4.232.547-7.382 1.115-9.302 1.681l-.254.077c1.537 3.321.828 6.761-.505 9.533a20.305 20.305 0 01-1.934 3.187zm-17.474 22.388a55.337 55.337 0 013.257 14.417c.521 6.076-.002 12.874-2.803 19.173h157.588c1.12-4.265 2.309-10.356 2.689-16.501.443-7.175-.257-13.878-2.901-17.979.001.001.002.003 0 0-.027-.029-.309-.332-1.32-.744-1.011-.412-2.451-.814-4.343-1.183-3.774-.736-8.976-1.272-15.312-1.627-34.111-1.911-98.173 1.571-136.855 4.444zm-3.744-4.495c35.392-2.698 95.656-6.14 132.576-5.049a17.467 17.467 0 01-2.023-2.379c-1.211-1.732-2.097-3.789-2.139-6.084a9.396 9.396 0 01.441-3.014l-145.003 4.575c-1.025 2.154-2.042 4.915-2.371 7.367-.2 1.49-.114 2.647.184 3.431.214.562.522.923 1.025 1.153h17.31z" fill="#1D1C1D"/><path d="M481.5 424.454c-14.928 4.005-31.151-6.057-36.235-22.475s2.896-32.974 17.824-36.979c-8.146 1.664-19.098 5.484-27.933 11.792-12.033 8.591-20.14 21.799-11.883 40.465 2.865 4.505 9.396 10.317 19.576 12.827 4.648 1.146 10.058 1.604 16.226.935 6.605-.717 14.081-2.725 22.425-6.565z" fill="#1D1C1D"/><path d="M442.849 430.084l-6.788 10.978h12.786l10.228-10.043c-6.168.669-11.578.211-16.226-.935zm38.651-5.63c-4.774 2.197-9.264 3.794-13.469 4.893l13.469 9.334h10.819L481.5 424.454z" fill="#1D1C1D"/><path fill-rule="evenodd" clip-rule="evenodd" d="M431 376.878l-14.37-9.97c-1.132-.785-1.366-2.277-.522-3.331.844-1.054 2.447-1.271 3.579-.486l15.473 10.736c7.997-5.327 17.316-8.774 24.885-10.596l-3.466-14.485c-.307-1.283.561-2.555 1.94-2.841 1.378-.286 2.745.523 3.052 1.806l3.452 14.424c15.813-2.684 31.681 8.286 36.757 24.681 4.991 16.117-1.844 32.962-16.254 38.813l8.88 11.677c.552.726.623 1.678.184 2.469-.439.79-1.315 1.286-2.271 1.286H481.5a2.681 2.681 0 01-1.527-.471l-12.473-8.643a64.433 64.433 0 01-7.199 1.328l-9.599 9.424a2.652 2.652 0 01-1.855.743H436.06c-.913 0-1.756-.453-2.213-1.189a2.24 2.24 0 01-.003-2.379l5.194-8.398c-9.079-3.004-15.092-8.489-17.965-13.007a2.2 2.2 0 01-.164-.306c-4.336-9.802-4.447-18.372-1.72-25.696 2.328-6.25 6.655-11.414 11.811-15.589zm13.112 55.934c2.694.537 5.595.856 8.702.894l-5.067 4.975h-7.264l3.629-5.869zm23.432-5.81c-3.098.82-6.019 1.355-8.765 1.652-5.859.636-10.945.197-15.275-.871-9.394-2.316-15.351-7.622-17.938-11.595-3.849-8.792-3.8-16.105-1.544-22.162 2.287-6.143 6.939-11.239 12.69-15.345 3.404-2.431 7.15-4.483 10.925-6.172-6.161 7.943-8.212 19.203-4.829 30.129 3.811 12.307 13.703 21.557 25.088 24.269l-.352.095zm13.116.467a87.208 87.208 0 01-7.113 2.733l8.8 6.099h5.029l-6.716-8.832zm-32.938-26.15c4.809 15.527 19.867 24.39 33.069 20.848 13.203-3.543 20.883-18.506 16.075-34.033-4.808-15.527-19.867-24.389-33.069-20.847-13.202 3.542-20.883 18.505-16.075 34.032zm19.45 13.419c-1.33-.442-2.024-1.804-1.549-3.042l6.099-15.912-6.132-18.283c-.421-1.255.331-2.589 1.679-2.981 1.348-.392 2.782.308 3.203 1.563l6.387 19.042a2.223 2.223 0 01-.033 1.509l-6.386 16.662c-.475 1.238-1.938 1.884-3.268 1.442z" fill="#1D1C1D"/><path d="M414.987 373.458c-2.609 1.007-5.696-.161-5.959-2.778-.574-5.712 2.354-11.093 7.696-13.155 5.342-2.062 11.503-.188 15.439 4.226 1.804 2.022.511 4.881-2.098 5.888l-15.078 5.819zm36.253-16.501c-2.73.674-5.626-.871-5.468-3.496.346-5.759 4.289-10.799 10.197-12.258 5.909-1.459 12.017 1.099 15.385 5.941 1.535 2.208-.157 4.885-2.887 5.559l-17.227 4.254z" fill="#1D1C1D"/><defs><linearGradient id="paint0_linear_201_76" x1="340.868" y1="-185.732" x2="335.564" y2="475.569" gradientUnits="userSpaceOnUse"><stop stop-color="#ED553B"/><stop offset="1" stop-color="#EF8451" stop-opacity="0"/></linearGradient></defs></svg>